<mxfile host="Electron" agent="Mozilla/5.0 (Windows NT 10.0; Win64; x64) AppleWebKit/537.36 (KHTML, like Gecko) draw.io/26.0.15 Chrome/132.0.6834.196 Electron/34.2.0 Safari/537.36" version="26.0.15">
  <diagram name="Page-1" id="LD8nZFepjGmzFPScPrtr">
    <mxGraphModel dx="1000" dy="1699" grid="1" gridSize="10" guides="1" tooltips="1" connect="1" arrows="1" fold="1" page="1" pageScale="1" pageWidth="850" pageHeight="1100" math="0" shadow="0">
      <root>
        <mxCell id="0" />
        <mxCell id="1" parent="0" />
        <mxCell id="F7DIGvL9Qsh4aZBgS8ls-1" value="q0" style="ellipse;whiteSpace=wrap;html=1;" vertex="1" parent="1">
          <mxGeometry x="80" y="60" width="140" height="70" as="geometry" />
        </mxCell>
        <mxCell id="F7DIGvL9Qsh4aZBgS8ls-2" value="q1" style="ellipse;whiteSpace=wrap;html=1;" vertex="1" parent="1">
          <mxGeometry x="270" y="60" width="140" height="70" as="geometry" />
        </mxCell>
        <mxCell id="F7DIGvL9Qsh4aZBgS8ls-4" value="b" style="html=1;verticalAlign=bottom;endArrow=block;curved=0;rounded=0;exitX=1;exitY=0.5;exitDx=0;exitDy=0;entryX=0;entryY=0.5;entryDx=0;entryDy=0;" edge="1" parent="1" source="F7DIGvL9Qsh4aZBgS8ls-1" target="F7DIGvL9Qsh4aZBgS8ls-2">
          <mxGeometry width="80" relative="1" as="geometry">
            <mxPoint x="240" y="40" as="sourcePoint" />
            <mxPoint x="320" y="40" as="targetPoint" />
          </mxGeometry>
        </mxCell>
        <mxCell id="F7DIGvL9Qsh4aZBgS8ls-5" value="q2" style="ellipse;whiteSpace=wrap;html=1;" vertex="1" parent="1">
          <mxGeometry x="460" y="60" width="140" height="70" as="geometry" />
        </mxCell>
        <mxCell id="F7DIGvL9Qsh4aZBgS8ls-6" value="a,b" style="html=1;verticalAlign=bottom;endArrow=block;curved=0;rounded=0;exitX=1;exitY=0.5;exitDx=0;exitDy=0;entryX=0;entryY=0.5;entryDx=0;entryDy=0;" edge="1" parent="1" source="F7DIGvL9Qsh4aZBgS8ls-2" target="F7DIGvL9Qsh4aZBgS8ls-5">
          <mxGeometry width="80" relative="1" as="geometry">
            <mxPoint x="400" y="40" as="sourcePoint" />
            <mxPoint x="480" y="40" as="targetPoint" />
          </mxGeometry>
        </mxCell>
        <mxCell id="F7DIGvL9Qsh4aZBgS8ls-8" value="a,b" style="html=1;verticalAlign=bottom;endArrow=block;curved=0;rounded=0;entryX=0;entryY=0;entryDx=0;entryDy=0;exitX=0.784;exitY=0.041;exitDx=0;exitDy=0;exitPerimeter=0;" edge="1" parent="1" source="F7DIGvL9Qsh4aZBgS8ls-5" target="F7DIGvL9Qsh4aZBgS8ls-5">
          <mxGeometry width="80" relative="1" as="geometry">
            <mxPoint x="530" y="40" as="sourcePoint" />
            <mxPoint x="641.1291062930061" y="91.26099033699938" as="targetPoint" />
            <Array as="points">
              <mxPoint x="570" />
              <mxPoint x="481" />
            </Array>
          </mxGeometry>
        </mxCell>
        <mxCell id="F7DIGvL9Qsh4aZBgS8ls-9" value="a" style="html=1;verticalAlign=bottom;endArrow=block;curved=0;rounded=0;exitX=0.5;exitY=1;exitDx=0;exitDy=0;entryX=0.5;entryY=1;entryDx=0;entryDy=0;" edge="1" parent="1" source="F7DIGvL9Qsh4aZBgS8ls-1" target="F7DIGvL9Qsh4aZBgS8ls-11">
          <mxGeometry width="80" relative="1" as="geometry">
            <mxPoint x="140" y="210" as="sourcePoint" />
            <mxPoint x="505" y="130" as="targetPoint" />
            <Array as="points">
              <mxPoint x="150" y="200" />
              <mxPoint x="900" y="200" />
            </Array>
          </mxGeometry>
        </mxCell>
        <mxCell id="F7DIGvL9Qsh4aZBgS8ls-10" value="q3&lt;span style=&quot;color: rgba(0, 0, 0, 0); font-family: monospace; font-size: 0px; text-align: start; text-wrap-mode: nowrap;&quot;&gt;%3CmxGraphModel%3E%3Croot%3E%3CmxCell%20id%3D%220%22%2F%3E%3CmxCell%20id%3D%221%22%20parent%3D%220%22%2F%3E%3CmxCell%20id%3D%222%22%20value%3D%22q2%22%20style%3D%22ellipse%3BwhiteSpace%3Dwrap%3Bhtml%3D1%3B%22%20vertex%3D%221%22%20parent%3D%221%22%3E%3CmxGeometry%20x%3D%22460%22%20y%3D%2260%22%20width%3D%22140%22%20height%3D%2270%22%20as%3D%22geometry%22%2F%3E%3C%2FmxCell%3E%3C%2Froot%3E%3C%2FmxGraphModel%3E&lt;/span&gt;" style="ellipse;whiteSpace=wrap;html=1;" vertex="1" parent="1">
          <mxGeometry x="650" y="60" width="140" height="70" as="geometry" />
        </mxCell>
        <mxCell id="F7DIGvL9Qsh4aZBgS8ls-11" value="q4" style="ellipse;whiteSpace=wrap;html=1;" vertex="1" parent="1">
          <mxGeometry x="830" y="60" width="140" height="70" as="geometry" />
        </mxCell>
        <mxCell id="F7DIGvL9Qsh4aZBgS8ls-12" value="e" style="html=1;verticalAlign=bottom;endArrow=block;curved=0;rounded=0;exitX=1;exitY=0.5;exitDx=0;exitDy=0;entryX=0;entryY=0.5;entryDx=0;entryDy=0;" edge="1" parent="1" source="F7DIGvL9Qsh4aZBgS8ls-5" target="F7DIGvL9Qsh4aZBgS8ls-10">
          <mxGeometry x="-0.2" y="5" width="80" relative="1" as="geometry">
            <mxPoint x="610" y="-90" as="sourcePoint" />
            <mxPoint x="690" y="-90" as="targetPoint" />
            <mxPoint as="offset" />
          </mxGeometry>
        </mxCell>
        <mxCell id="F7DIGvL9Qsh4aZBgS8ls-13" value="e" style="html=1;verticalAlign=bottom;endArrow=block;curved=0;rounded=0;exitX=1;exitY=0.5;exitDx=0;exitDy=0;" edge="1" parent="1" source="F7DIGvL9Qsh4aZBgS8ls-10" target="F7DIGvL9Qsh4aZBgS8ls-11">
          <mxGeometry width="80" relative="1" as="geometry">
            <mxPoint x="840" y="-40" as="sourcePoint" />
            <mxPoint x="920" y="-40" as="targetPoint" />
            <mxPoint as="offset" />
          </mxGeometry>
        </mxCell>
      </root>
    </mxGraphModel>
  </diagram>
</mxfile>
